<?xml version="1.0" standalone="no"?>
<!DOCTYPE svg PUBLIC "-//W3C//DTD SVG 20010904//EN"
 "http://www.w3.org/TR/2001/REC-SVG-20010904/DTD/svg10.dtd">
<svg version="1.0" xmlns="http://www.w3.org/2000/svg"
 width="500.000000pt" height="500.000000pt" viewBox="0 0 500.000000 500.000000"
 preserveAspectRatio="xMidYMid meet">

<g transform="translate(0.000000,500.000000) scale(0.100000,-0.100000)"
fill="#000000" stroke="none">
<path d="M1575 3969 c-147 -17 -352 -92 -465 -169 -41 -28 -43 -30 -15 -24 17
3 53 16 80 29 72 33 225 85 225 76 0 -4 -12 -14 -27 -21 -26 -12 -27 -13 -8
-21 11 -4 31 -8 45 -8 l24 -1 -23 -16 c-20 -15 -25 -15 -38 -1 -13 13 -18 13
-44 0 -41 -20 -46 -35 -12 -31 20 2 28 -1 28 -12 0 -10 -12 -16 -35 -18 -19
-1 -73 -9 -120 -17 -47 -8 -101 -17 -120 -20 -39 -6 -110 -58 -110 -80 0 -8
-16 -26 -35 -41 -23 -17 -34 -33 -30 -42 3 -8 -3 -21 -15 -29 -11 -8 -27 -29
-36 -46 -9 -18 -30 -45 -47 -60 l-32 -28 30 15 c17 8 68 40 114 70 111 75 141
74 141 -7 1 -27 2 -29 11 -14 16 27 26 12 34 -50 4 -41 2 -71 -9 -102 -23 -62
-20 -109 9 -156 13 -22 29 -51 36 -65 6 -14 15 -33 20 -42 5 -10 9 -24 9 -32
0 -13 40 -80 57 -96 11 -10 -10 65 -22 80 -7 8 -18 26 -24 40 -10 20 -6 18 21
-11 120 -130 137 -153 126 -167 -14 -16 5 -32 40 -32 12 0 22 -6 22 -13 0 -19
36 -37 88 -43 42 -5 78 -19 211 -83 19 -9 39 -27 44 -41 14 -38 127 -83 127
-51 0 5 8 12 18 14 9 3 -4 3 -29 0 -53 -6 -57 -1 -68 87 l-6 55 -57 3 -57 3 6
32 c3 18 10 40 14 49 16 31 10 48 -16 48 -18 0 -31 -9 -43 -30 -46 -81 -152
-30 -152 73 0 34 6 46 40 78 27 26 54 41 80 45 21 4 41 13 45 21 4 12 15 14
46 9 59 -9 76 -21 99 -66 11 -22 25 -40 30 -40 16 0 11 31 -11 67 -19 30 -20
37 -9 64 7 17 24 37 37 46 24 16 33 66 13 78 -15 9 -12 25 3 19 16 -6 67 63
67 89 0 13 9 17 43 17 59 0 69 9 55 47 -6 17 -8 38 -3 49 5 12 9 15 12 7 3 -7
12 -13 20 -13 15 0 15 -8 -2 -55 -6 -17 -4 -17 12 4 16 19 26 22 56 18 20 -3
37 -2 37 2 -1 9 -27 42 -34 42 -21 -3 -28 3 -52 38 -14 22 -38 44 -52 50 -15
5 -47 28 -71 50 -37 34 -46 38 -55 26 -10 -13 -16 -12 -49 11 -21 14 -55 28
-75 31 -45 7 -82 44 -82 82 0 15 3 30 6 33 10 11 44 -4 44 -19 0 -10 6 -12 20
-8 28 9 26 -18 -2 -38 -22 -15 -23 -15 -3 -22 11 -4 43 -16 72 -27 29 -11 56
-17 62 -14 15 9 2 65 -23 101 -18 27 -33 41 -70 68 -7 4 -6 10 4 17 20 13 4
13 -21 -1 -14 -7 -24 -7 -32 -1 -7 6 -28 12 -47 14 -28 2 -36 8 -38 27 -4 27
15 52 26 35 12 -18 49 -34 79 -34 39 0 183 -94 183 -120 0 -10 21 -36 46 -57
26 -21 58 -49 73 -62 27 -24 70 -45 78 -37 2 2 -1 23 -7 46 -14 51 -7 86 20
100 16 9 18 15 10 30 -6 11 -17 20 -24 20 -7 0 -21 9 -31 20 -28 31 -114 83
-169 101 -104 36 -58 55 99 42 106 -9 154 -1 72 11 -76 11 -430 15 -512 5z
m265 -19 c0 -5 -7 -10 -15 -10 -8 0 -15 5 -15 10 0 6 7 10 15 10 8 0 15 -4 15
-10z m-370 -115 c0 -8 -4 -15 -9 -15 -13 0 -22 16 -14 24 11 11 23 6 23 -9z
m50 5 c0 -5 -4 -10 -10 -10 -5 0 -10 5 -10 10 0 6 5 10 10 10 6 0 10 -4 10
-10z m58 -17 c0 -10 3 -26 7 -37 7 -16 5 -17 -12 -7 -26 13 -35 35 -20 50 16
16 26 14 25 -6z m-68 -33 c12 -8 9 -10 -12 -10 -15 0 -30 5 -33 10 -8 13 25
13 45 0z m112 -32 c-15 -15 -26 -4 -18 18 5 13 9 15 18 6 9 -9 9 -15 0 -24z
m-132 -8 c0 -5 -7 -10 -16 -10 -8 0 -12 5 -9 10 3 6 10 10 16 10 5 0 9 -4 9
-10z m-90 -10 c0 -5 -6 -10 -14 -10 -8 0 -18 5 -21 10 -3 6 3 10 14 10 12 0
21 -4 21 -10z m-30 -58 c0 -5 -9 -17 -20 -27 -13 -12 -20 -14 -20 -5 0 8 -9
11 -25 8 -32 -7 -32 -2 3 16 30 17 62 21 62 8z m328 -30 c12 -7 22 -19 22 -27
0 -8 9 -24 20 -35 11 -11 20 -31 20 -45 0 -19 5 -25 21 -25 18 0 20 -2 8 -16
-7 -8 -21 -13 -31 -11 -10 3 -16 1 -13 -3 9 -15 -11 -20 -46 -10 -18 6 -42 7
-53 4 -17 -6 -18 -7 -3 -16 26 -14 21 -29 -6 -19 -13 5 -32 9 -42 8 -26 -3
-42 27 -26 47 15 18 41 22 41 6 0 -5 5 -10 10 -10 6 0 10 7 10 15 0 8 -7 15
-16 15 -23 0 -93 62 -87 77 3 7 11 13 17 13 7 0 23 11 36 25 19 20 32 25 60
22 19 -2 45 -9 58 -15z m-238 -2 c0 -5 -4 -10 -10 -10 -5 0 -10 5 -10 10 0 6
5 10 10 10 6 0 10 -4 10 -10z m-64 -15 c-4 -12 0 -14 20 -9 13 4 24 2 23 -2
-4 -22 2 -26 14 -9 15 19 42 12 30 -8 -4 -7 0 -6 10 2 29 23 21 -11 -8 -39
-14 -13 -24 -31 -23 -39 2 -10 -6 -17 -20 -19 -18 -3 -23 1 -20 15 2 13 -3 17
-17 16 -33 -4 -77 18 -65 32 6 7 6 15 -1 22 -14 14 -4 32 25 43 31 13 39 12
32 -5z m465 -88 c-16 -16 -26 0 -10 19 9 11 15 12 17 4 2 -6 -1 -17 -7 -23z
m-321 13 c0 -5 -4 -10 -9 -10 -6 0 -13 5 -16 10 -3 6 1 10 9 10 9 0 16 -4 16
-10z m260 -90 c0 -5 -7 -10 -15 -10 -8 0 -15 5 -15 10 0 6 7 10 15 10 8 0 15
-4 15 -10z m40 0 c0 -5 -4 -10 -10 -10 -5 0 -10 5 -10 10 0 6 5 10 10 10 6 0
10 -4 10 -10z m116 -15 c18 -14 17 -14 -13 -15 -31 0 -41 9 -26 23 10 10 17 9
39 -8z m-301 -35 c18 -20 17 -20 -28 -20 -48 0 -56 7 -35 28 18 18 43 15 63
-8z m315 -40 c0 -5 -7 -10 -15 -10 -8 0 -15 5 -15 10 0 6 7 10 15 10 8 0 15
-4 15 -10z"/>
<path d="M1593 3553 c9 -9 20 -13 24 -9 4 4 1 11 -7 16 -25 16 -35 11 -17 -7z"/>
<path d="M1650 3520 c0 -5 5 -10 10 -10 6 0 10 5 10 10 0 6 -4 10 -10 10 -5 0
-10 -4 -10 -10z"/>
<path d="M1410 3576 c0 -2 7 -7 16 -10 8 -3 12 -2 9 4 -6 10 -25 14 -25 6z"/>
<path d="M2240 3653 c0 -9 3 -14 6 -10 3 3 23 -1 44 -8 36 -13 50 -11 50 6 0
9 -56 29 -81 29 -11 0 -19 -7 -19 -17z"/>
<path d="M740 3490 c-12 -8 -12 -10 3 -16 20 -7 47 1 47 16 0 12 -30 13 -50 0z"/>
<path d="M2857 3443 c-11 -10 -8 -20 8 -27 10 -4 15 1 15 14 0 20 -11 26 -23
13z"/>
<path d="M2891 3404 c0 -11 3 -14 6 -6 3 7 2 16 -1 19 -3 4 -6 -2 -5 -13z"/>
<path d="M621 3304 c0 -11 3 -14 6 -6 3 7 2 16 -1 19 -3 4 -6 -2 -5 -13z"/>
<path d="M558 3213 c-23 -28 -97 -241 -118 -343 -17 -84 -26 -295 -12 -286 8
5 12 39 12 92 0 90 10 124 37 124 12 0 14 6 8 28 -14 53 -16 127 -5 157 l11
30 18 -23 17 -23 18 50 c9 27 16 64 14 83 l-4 33 -8 -42 c-9 -48 -36 -81 -36
-45 0 26 19 71 41 97 14 17 34 85 25 85 -1 0 -10 -8 -18 -17z"/>
<path d="M4030 2905 l0 -285 70 0 70 0 0 41 c0 32 6 47 31 71 25 25 33 29 40
17 5 -8 25 -40 45 -71 l35 -58 85 0 c65 0 83 3 78 13 -9 15 -61 97 -110 172
-20 32 -32 60 -28 68 4 6 29 35 56 62 26 28 55 60 64 73 l15 22 -84 0 -84 0
-63 -75 c-35 -41 -67 -75 -71 -75 -5 0 -9 70 -9 155 l0 155 -70 0 -70 0 0
-285z"/>
<path d="M2020 2885 l0 -265 199 0 c110 0 210 4 223 9 13 5 38 22 56 39 30 28
32 35 32 95 0 62 -2 66 -35 96 -20 17 -40 31 -45 31 -6 0 -10 5 -10 10 0 6 6
10 14 10 8 0 26 14 40 31 20 24 26 41 26 81 0 45 -4 54 -39 89 l-39 39 -211 0
-211 0 0 -265z m324 139 c23 -60 -5 -84 -100 -84 l-54 0 0 50 0 50 74 0 c58 0
75 -3 80 -16z m4 -196 c7 -7 12 -24 12 -38 0 -41 -17 -50 -97 -50 l-73 0 0 50
0 50 73 0 c43 0 78 -5 85 -12z"/>
<path d="M2815 3026 c-16 -7 -37 -24 -45 -37 l-14 -24 -6 30 c-5 29 -7 30 -68
33 l-62 3 0 -206 0 -205 75 0 75 0 0 93 c0 125 12 165 55 183 19 8 46 14 60
14 25 0 26 1 23 63 -3 61 -3 62 -33 64 -16 2 -43 -3 -60 -11z"/>
<path d="M3108 3031 c-40 -8 -69 -25 -109 -63 -38 -35 -55 -122 -40 -196 14
-72 30 -95 88 -129 44 -26 57 -28 148 -28 88 0 105 3 143 25 47 26 72 63 72
105 0 24 -2 25 -70 25 -52 0 -70 -3 -70 -13 0 -18 -29 -43 -58 -50 -37 -9 -88
10 -100 39 -25 54 -25 54 144 54 l157 0 -6 66 c-4 58 -9 70 -38 101 -19 19
-46 41 -61 49 -32 17 -149 26 -200 15z m134 -108 c10 -9 18 -24 18 -35 0 -16
-9 -18 -80 -18 -87 0 -95 6 -55 45 29 30 89 34 117 8z"/>
<path d="M3615 3031 c-65 -12 -115 -49 -130 -98 -6 -23 -5 -23 73 -23 62 0 81
3 86 15 4 10 19 15 49 15 48 0 67 -13 67 -46 0 -19 -7 -22 -71 -28 -105 -9
-154 -24 -184 -56 -32 -33 -43 -101 -23 -140 33 -63 157 -80 244 -34 40 22 50
23 59 11 18 -24 52 -37 99 -37 68 0 76 6 76 55 0 38 -3 44 -22 47 -22 3 -23 8
-28 124 -5 132 -12 149 -71 180 -32 16 -168 26 -224 15z m145 -258 c0 -37 -9
-49 -45 -63 -58 -22 -109 15 -79 58 14 20 37 27 97 31 23 1 27 -3 27 -26z"/>
<path d="M1740 2900 c-12 -8 -11 -10 7 -10 12 0 25 5 28 10 8 13 -15 13 -35 0z"/>
<path d="M1824 2890 c44 -22 56 -24 56 -10 0 5 -17 14 -37 19 -56 16 -63 13
-19 -9z"/>
<path d="M497 2733 c-11 -18 3 -84 19 -90 8 -3 14 -17 14 -31 0 -24 1 -25 16
-10 15 15 14 18 -6 46 -12 16 -25 45 -29 63 -4 21 -10 29 -14 22z"/>
<path d="M493 2595 c-3 -9 -3 -18 -1 -21 3 -3 8 4 11 16 6 23 -1 27 -10 5z"/>
<path d="M552 2569 c-10 -16 -11 -24 -1 -35 11 -13 13 -14 21 -1 4 9 5 25 0
36 l-7 21 -13 -21z"/>
<path d="M415 2513 c9 -83 17 -123 24 -127 8 -5 -5 92 -19 139 -8 26 -9 24 -5
-12z"/>
<path d="M470 2474 c-13 -61 -7 -104 14 -104 7 0 18 10 24 23 9 18 11 19 13 5
1 -10 3 -22 4 -28 1 -5 3 -19 4 -30 1 -12 6 -17 14 -14 19 7 16 74 -3 74 -8 1
-2 7 15 14 19 8 25 15 17 20 -7 4 -17 4 -23 1 -19 -12 -49 26 -49 62 0 52 -17
39 -30 -23z"/>
<path d="M1091 2508 c14 -14 31 -33 38 -44 11 -18 11 -18 9 4 -2 14 -17 31
-38 44 l-35 20 26 -24z"/>
<path d="M603 2410 c0 -25 2 -35 4 -22 2 12 2 32 0 45 -2 12 -4 2 -4 -23z"/>
<path d="M1861 2427 c-19 -23 -41 -85 -41 -114 1 -15 14 -53 30 -83 l29 -55 1
133 c0 72 -2 132 -4 132 -2 0 -9 -6 -15 -13z"/>
<path d="M2080 2140 l0 -270 80 0 79 0 3 131 3 132 113 -132 113 -131 74 0 75
0 0 270 0 270 -80 0 -79 0 -3 -131 -3 -132 -105 124 c-57 68 -109 127 -115
131 -5 4 -43 8 -82 8 l-73 0 0 -270z"/>
<path d="M630 2375 c-5 -13 -17 -25 -27 -28 -12 -3 -8 -5 10 -6 18 -1 27 4 27
14 0 21 21 19 27 -3 2 -10 17 -26 33 -36 43 -25 61 -46 55 -65 -7 -24 51 -48
77 -32 21 13 42 5 72 -28 11 -12 26 -21 35 -21 12 1 8 7 -11 25 -38 33 -37 65
1 65 31 0 66 34 54 53 -3 6 -10 1 -14 -10 -16 -45 -66 -41 -138 11 -35 25 -53
31 -95 31 -45 0 -51 3 -54 21 -5 32 -41 38 -52 9z"/>
<path d="M450 2332 c0 -5 8 -16 18 -24 9 -9 31 -30 49 -46 26 -23 33 -26 38
-14 3 8 4 16 3 16 -36 20 -88 59 -88 66 0 6 -4 10 -10 10 -5 0 -10 -4 -10 -8z"/>
<path d="M2837 2275 c-69 -24 -109 -74 -122 -153 -26 -160 68 -258 246 -256
120 1 209 57 209 132 0 21 -4 22 -70 22 -40 0 -70 -4 -70 -10 0 -25 -41 -50
-83 -50 -49 0 -71 17 -82 63 l-7 27 156 0 156 0 0 41 c0 96 -47 166 -127 188
-53 15 -160 13 -206 -4z m160 -97 c13 -12 23 -30 23 -40 0 -16 -9 -18 -74 -18
-41 0 -77 4 -80 9 -4 5 6 23 20 40 32 38 76 42 111 9z"/>
<path d="M4090 2280 c-51 -12 -100 -70 -100 -119 0 -72 49 -110 164 -130 80
-14 106 -25 106 -47 0 -38 -109 -41 -133 -4 -10 17 -23 20 -79 20 -60 0 -68
-2 -68 -19 0 -29 36 -67 88 -92 36 -18 64 -23 122 -23 89 0 138 15 180 54 26
24 30 35 30 82 0 30 -6 61 -12 70 -23 28 -72 48 -158 66 -64 13 -86 22 -88 35
-5 27 40 43 78 27 16 -7 30 -19 30 -26 0 -11 17 -14 70 -14 69 0 70 1 70 26 0
34 -47 79 -96 93 -45 12 -152 13 -204 1z"/>
<path d="M3236 2213 c15 -38 37 -97 50 -133 12 -36 34 -96 48 -135 l25 -70 75
-3 74 -3 10 33 c5 18 20 70 32 116 13 45 26 82 30 82 4 0 11 -17 15 -37 4 -21
18 -73 31 -115 l25 -78 73 0 c62 0 75 3 79 18 3 9 21 60 40 112 64 176 97 268
97 274 0 13 -141 6 -144 -6 -2 -7 -17 -61 -32 -120 -16 -60 -32 -108 -35 -108
-4 0 -10 17 -14 38 -3 20 -16 73 -29 117 l-23 80 -75 3 -76 3 -21 -70 c-12
-38 -21 -75 -21 -81 0 -22 -23 -90 -30 -90 -4 0 -20 54 -36 120 l-28 120 -83
0 -83 0 26 -67z"/>
<path d="M592 2258 c-14 -14 -16 -28 -3 -28 5 0 11 9 14 20 6 23 5 24 -11 8z"/>
<path d="M1020 2262 c0 -13 27 -35 39 -30 5 1 -2 11 -15 21 -13 10 -24 14 -24
9z"/>
<path d="M1085 2210 c-19 -8 -19 -9 3 -9 12 -1 22 4 22 9 0 6 -1 10 -2 9 -2 0
-12 -4 -23 -9z"/>
<path d="M658 2178 c-2 -16 -11 -24 -30 -26 -20 -2 -28 -10 -33 -32 -3 -15
-15 -36 -25 -45 -18 -16 -18 -19 12 -88 42 -101 73 -140 106 -134 44 8 70 -9
181 -121 58 -59 96 -95 83 -81 -27 31 -27 35 -3 42 24 6 61 88 61 133 0 25 -4
32 -15 28 -9 -4 -18 1 -21 10 -9 22 5 34 16 16 6 -8 10 -10 10 -4 0 6 -7 17
-15 24 -8 7 -15 18 -15 25 0 7 -14 28 -31 46 -17 19 -41 57 -55 84 -13 28 -28
57 -33 65 -5 8 -13 24 -17 35 -7 16 -9 13 -12 -17 -4 -47 -17 -48 -69 -3 -23
19 -46 35 -51 35 -6 0 -17 7 -26 15 -13 13 -15 13 -18 -7z"/>
<path d="M1127 2183 c-12 -12 -7 -22 8 -17 8 4 15 10 15 15 0 11 -14 12 -23 2z"/>
<path d="M1250 2048 c0 -9 5 -20 10 -23 13 -8 13 5 0 25 -8 13 -10 13 -10 -2z"/>
<path d="M1460 1990 c0 -5 5 -10 11 -10 5 0 7 5 4 10 -3 6 -8 10 -11 10 -2 0
-4 -4 -4 -10z"/>
<path d="M1200 1953 c0 -6 8 -17 18 -24 16 -13 16 -13 2 6 -8 11 -16 22 -17
24 -2 2 -3 0 -3 -6z"/>
<path d="M1219 1753 c-1 -16 -1 -34 0 -40 1 -7 -6 -13 -15 -13 -24 0 -111 -53
-96 -58 7 -2 46 15 87 38 l74 43 -22 28 c-11 16 -22 29 -24 29 -2 0 -4 -12 -4
-27z"/>
</g>
</svg>
